<svg width="20" height="19" viewBox="0 0 20 19" fill="none" xmlns="http://www.w3.org/2000/svg">
<path d="M9.43721 0.5259C9.59812 0.400725 9.79617 0.332764 10 0.332764C10.2039 0.332764 10.402 0.400725 10.5629 0.5259L18.1052 6.39257C18.436 6.64987 18.7036 6.97937 18.8875 7.35589C19.0715 7.73241 19.167 8.146 19.1667 8.56507V16.8334C19.1667 17.3196 18.9736 17.7859 18.6297 18.1298C18.2859 18.4736 17.8196 18.6667 17.3334 18.6667H13.6667C13.1805 18.6667 12.7142 18.4736 12.3703 18.1298C12.0265 17.7859 11.8334 17.3196 11.8334 16.8334V11.3334H8.16671V16.8334C8.16671 17.3196 7.97355 17.7859 7.62974 18.1298C7.28592 18.4736 6.81961 18.6667 6.33337 18.6667H2.66671C2.18048 18.6667 1.71416 18.4736 1.37034 18.1298C1.02653 17.7859 0.833374 17.3196 0.833374 16.8334V8.56507C0.833374 7.7144 1.22571 6.91507 1.89671 6.39257L9.43721 0.5259ZM10 2.41057L3.02054 7.83907C2.91004 7.92503 2.82069 8.03515 2.75936 8.161C2.69803 8.28685 2.66633 8.42507 2.66671 8.56507V16.8334H6.33337V11.3334C6.33337 10.8472 6.52653 10.3809 6.87035 10.037C7.21416 9.69322 7.68048 9.50007 8.16671 9.50007H11.8334C12.3196 9.50007 12.7859 9.69322 13.1297 10.037C13.4736 10.3809 13.6667 10.8472 13.6667 11.3334V16.8334H17.3334V8.56507C17.3338 8.42507 17.3021 8.28685 17.2407 8.161C17.1794 8.03515 17.09 7.92503 16.9795 7.83907L10 2.4124V2.41057Z" fill="#215F9C"/>
</svg>
