<svg width="32" height="32" viewBox="0 0 32 32" fill="none" xmlns="http://www.w3.org/2000/svg">
<path d="M22 20.6729L22 11.3271C21.9962 11.1531 21.9581 10.9816 21.8878 10.8224C21.7538 10.5014 21.4986 10.2462 21.1776 10.1121C21.0184 10.0419 20.8469 10.0038 20.6729 10L11.3271 10C11.1528 10 10.9803 10.0343 10.8192 10.101C10.6582 10.1677 10.5119 10.2655 10.3887 10.3887C10.1398 10.6376 10 10.9751 10 11.3271C10 11.6791 10.1398 12.0166 10.3887 12.2655C10.6376 12.5144 10.9751 12.6542 11.3271 12.6542L17.486 12.6449L10.3925 19.7383C10.1447 19.9862 10.0054 20.3224 10.0054 20.6729C10.0054 21.0234 10.1447 21.3596 10.3925 21.6075C10.6404 21.8553 10.9766 21.9946 11.3271 21.9946C11.6776 21.9946 12.0138 21.8553 12.2617 21.6075L19.3551 14.514L19.3458 20.6729C19.3451 20.8474 19.3789 21.0203 19.4453 21.1816C19.5118 21.3429 19.6095 21.4895 19.7329 21.6129C19.8563 21.7363 20.0028 21.834 20.1642 21.9004C20.3255 21.9669 20.4984 22.0007 20.6729 22C20.8474 22.0007 21.0203 21.9669 21.1816 21.9004C21.3429 21.834 21.4895 21.7363 21.6129 21.6129C21.7363 21.4895 21.834 21.3429 21.9004 21.1816C21.9669 21.0203 22.0007 20.8474 22 20.6729Z" fill="#252525"/>
</svg>
