<svg width="32" height="33" viewBox="0 0 32 33" fill="none" xmlns="http://www.w3.org/2000/svg">
<path d="M29.7616 12.9776C29.2314 12.4236 28.683 11.8526 28.4762 11.3506C28.285 10.8907 28.2738 10.1286 28.2625 9.39027C28.2414 8.01777 28.2189 6.46246 27.1375 5.38105C26.0561 4.29965 24.5008 4.27715 23.1283 4.25605C22.39 4.2448 21.6278 4.23355 21.168 4.0423C20.6673 3.83559 20.095 3.28715 19.5409 2.75699C18.5706 1.82465 17.4681 0.768555 16 0.768555C14.5319 0.768555 13.4308 1.82465 12.4591 2.75699C11.905 3.28715 11.3341 3.83559 10.832 4.0423C10.375 4.23355 9.61 4.2448 8.87172 4.25605C7.49922 4.27715 5.94391 4.29965 4.8625 5.38105C3.78109 6.46246 3.76562 8.01777 3.7375 9.39027C3.72625 10.1286 3.715 10.8907 3.52375 11.3506C3.31703 11.8512 2.76859 12.4236 2.23844 12.9776C1.30609 13.9479 0.25 15.0504 0.25 16.5186C0.25 17.9867 1.30609 19.0878 2.23844 20.0595C2.76859 20.6136 3.31703 21.1845 3.52375 21.6865C3.715 22.1464 3.72625 22.9086 3.7375 23.6468C3.75859 25.0193 3.78109 26.5746 4.8625 27.6561C5.94391 28.7375 7.49922 28.76 8.87172 28.7811C9.61 28.7923 10.3722 28.8036 10.832 28.9948C11.3327 29.2015 11.905 29.75 12.4591 30.2801C13.4294 31.2125 14.5319 32.2686 16 32.2686C17.4681 32.2686 18.5692 31.2125 19.5409 30.2801C20.095 29.75 20.6659 29.2015 21.168 28.9948C21.6278 28.8036 22.39 28.7923 23.1283 28.7811C24.5008 28.76 26.0561 28.7375 27.1375 27.6561C28.2189 26.5746 28.2414 25.0193 28.2625 23.6468C28.2738 22.9086 28.285 22.1464 28.4762 21.6865C28.683 21.1859 29.2314 20.6136 29.7616 20.0595C30.6939 19.0892 31.75 17.9867 31.75 16.5186C31.75 15.0504 30.6939 13.9493 29.7616 12.9776ZM28.1373 18.5028C27.4637 19.2059 26.7662 19.9329 26.3964 20.8259C26.042 21.6837 26.0266 22.6639 26.0125 23.6131C25.9984 24.5975 25.983 25.6282 25.5456 26.0642C25.1083 26.5001 24.0845 26.517 23.0945 26.5311C22.1453 26.5451 21.1652 26.5606 20.3073 26.915C19.4144 27.2848 18.6873 27.9823 17.9842 28.6559C17.2811 29.3295 16.5625 30.0186 16 30.0186C15.4375 30.0186 14.7133 29.3267 14.0158 28.6559C13.3183 27.9851 12.5856 27.2848 11.6927 26.915C10.8348 26.5606 9.85469 26.5451 8.90547 26.5311C7.92109 26.517 6.89031 26.5015 6.45437 26.0642C6.01844 25.6268 6.00156 24.6031 5.9875 23.6131C5.97344 22.6639 5.95797 21.6837 5.60359 20.8259C5.23375 19.9329 4.53625 19.2059 3.86266 18.5028C3.18906 17.7996 2.5 17.0811 2.5 16.5186C2.5 15.9561 3.19187 15.2318 3.86266 14.5343C4.53344 13.8368 5.23375 13.1042 5.60359 12.2112C5.95797 11.3534 5.97344 10.3732 5.9875 9.42402C6.00156 8.43965 6.01703 7.40887 6.45437 6.97293C6.89172 6.53699 7.91547 6.52012 8.90547 6.50605C9.85469 6.49199 10.8348 6.47652 11.6927 6.12215C12.5856 5.7523 13.3127 5.0548 14.0158 4.38121C14.7189 3.70762 15.4375 3.01855 16 3.01855C16.5625 3.01855 17.2867 3.71043 17.9842 4.38121C18.6817 5.05199 19.4144 5.7523 20.3073 6.12215C21.1652 6.47652 22.1453 6.49199 23.0945 6.50605C24.0789 6.52012 25.1097 6.53559 25.5456 6.97293C25.9816 7.41027 25.9984 8.43402 26.0125 9.42402C26.0266 10.3732 26.042 11.3534 26.3964 12.2112C26.7662 13.1042 27.4637 13.8312 28.1373 14.5343C28.8109 15.2375 29.5 15.9561 29.5 16.5186C29.5 17.0811 28.8081 17.8053 28.1373 18.5028ZM22.4209 12.3476C22.5255 12.4521 22.6085 12.5762 22.6651 12.7127C22.7217 12.8493 22.7509 12.9957 22.7509 13.1436C22.7509 13.2914 22.7217 13.4378 22.6651 13.5744C22.6085 13.7109 22.5255 13.835 22.4209 13.9395L14.5459 21.8145C14.4415 21.9191 14.3174 22.0021 14.1808 22.0587C14.0442 22.1153 13.8978 22.1444 13.75 22.1444C13.6022 22.1444 13.4558 22.1153 13.3192 22.0587C13.1826 22.0021 13.0585 21.9191 12.9541 21.8145L9.57906 18.4395C9.36797 18.2284 9.24937 17.9421 9.24937 17.6436C9.24937 17.345 9.36797 17.0587 9.57906 16.8476C9.79016 16.6365 10.0765 16.5179 10.375 16.5179C10.6735 16.5179 10.9598 16.6365 11.1709 16.8476L13.75 19.4281L20.8291 12.3476C20.9335 12.243 21.0576 12.16 21.1942 12.1034C21.3308 12.0468 21.4772 12.0177 21.625 12.0177C21.7728 12.0177 21.9192 12.0468 22.0558 12.1034C22.1924 12.16 22.3165 12.243 22.4209 12.3476Z" fill="#92BEE7"/>
</svg>
