<svg width="34" height="33" viewBox="0 0 34 33" fill="none" xmlns="http://www.w3.org/2000/svg">
<path d="M8.74989 12.0186H7.24989M14.7499 12.0186H13.2499M8.74989 7.51855H7.24989M14.7499 7.51855H13.2499M26.7499 21.0186H25.2499M26.7499 15.0186H25.2499M19.9999 10.5186V31.5186H25.9999C28.8289 31.5186 30.2419 31.5186 31.1209 30.6396C31.9999 29.7606 31.9999 28.3476 31.9999 25.5186V16.5186C31.9999 13.6896 31.9999 12.2766 31.1209 11.3976C30.2419 10.5186 28.8289 10.5186 25.9999 10.5186H19.9999ZM19.9999 10.5186C19.9999 6.27655 19.9999 4.15405 18.6814 2.83705C17.3644 1.51855 15.2419 1.51855 10.9999 1.51855C6.75789 1.51855 4.63539 1.51855 3.31839 2.83705C1.99989 4.15405 1.99989 6.27655 1.99989 10.5186V15.0186M8.16639 18.4011C8.44389 18.1461 8.58189 18.0186 8.74989 18.0186C8.91789 18.0186 9.05589 18.1461 9.33339 18.4011L10.4029 19.3866C10.5319 19.5051 10.5964 19.5651 10.6759 19.5936C10.7569 19.6236 10.8439 19.6206 11.0209 19.6131L12.4639 19.5561C12.8359 19.5411 13.0219 19.5351 13.1494 19.6416C13.2769 19.7481 13.3024 19.9326 13.3519 20.3016L13.5499 21.7806C13.5739 21.9516 13.5844 22.0356 13.6264 22.1106C13.6684 22.1826 13.7359 22.2351 13.8709 22.3416L15.0349 23.2566C15.3229 23.4846 15.4669 23.5971 15.4954 23.7591C15.5239 23.9211 15.4264 24.0771 15.2329 24.3891L14.4454 25.6596C14.3554 25.8051 14.3104 25.8786 14.2954 25.9596C14.2804 26.0406 14.2984 26.1261 14.3344 26.2941L14.6464 27.7611C14.7244 28.1211 14.7619 28.3011 14.6794 28.4451C14.5969 28.5891 14.4214 28.6461 14.0719 28.7601L12.6829 29.2116C12.5179 29.2656 12.4354 29.2926 12.3694 29.3466C12.3049 29.4021 12.2644 29.4801 12.1849 29.6346L11.5069 30.9411C11.3344 31.2756 11.2474 31.4421 11.0899 31.4991C10.9324 31.5561 10.7599 31.4841 10.4119 31.3401L9.07989 30.7881C8.91639 30.7206 8.83539 30.6861 8.74989 30.6861C8.66439 30.6861 8.58339 30.7206 8.41989 30.7881L7.08789 31.3401C6.73989 31.4841 6.56739 31.5561 6.40989 31.4991C6.25239 31.4421 6.16539 31.2741 5.99289 30.9411L5.31489 29.6346C5.23389 29.4801 5.19489 29.4021 5.13039 29.3481C5.06589 29.2941 4.98189 29.2656 4.81689 29.2131L3.42789 28.7601C3.07839 28.6461 2.90289 28.5891 2.82039 28.4451C2.73789 28.3011 2.77539 28.1226 2.85339 27.7611L3.16539 26.2941C3.20139 26.1261 3.21939 26.0421 3.20439 25.9611C3.17363 25.8525 3.12275 25.7508 3.05439 25.6611L2.26539 24.3891C2.07339 24.0771 1.97589 23.9211 2.00439 23.7591C2.03289 23.5971 2.17689 23.4846 2.46489 23.2581L3.62889 22.3431C3.76389 22.2351 3.83139 22.1826 3.87339 22.1091C3.91539 22.0356 3.92589 21.9516 3.94839 21.7791L4.14789 20.3016C4.19739 19.9341 4.22289 19.7481 4.35039 19.6416C4.47789 19.5351 4.66389 19.5411 5.03589 19.5561L6.48039 19.6131C6.65589 19.6206 6.74289 19.6236 6.82389 19.5936C6.90339 19.5636 6.96789 19.5051 7.09689 19.3866L8.16639 18.4011Z" stroke="#92BEE7" stroke-width="2.25" stroke-linecap="round" stroke-linejoin="round"/>
</svg>
