<svg width="120" height="47" viewBox="0 0 120 47" fill="none" xmlns="http://www.w3.org/2000/svg">
<path fill-rule="evenodd" clip-rule="evenodd" d="M31.0318 0.258595C25.6495 1.2405 20.6687 4.08386 17.3867 8.04822C15.0472 10.874 13.9811 12.7054 13.0872 15.4343C12.1894 18.175 11.9263 19.8962 11.9256 23.034C11.9246 26.9294 12.1534 28.0514 13.7802 32.1262L14.6627 34.3366L18.1807 34.4378C20.1157 34.4934 21.7228 34.5151 21.7521 34.4858C21.7812 34.4565 21.4096 33.9105 20.9261 33.2724C17.3671 28.5753 16.5676 22.0196 18.8773 16.4716C19.5487 14.8584 20.8408 12.8787 22.1433 11.467C28.1671 4.93793 38.1444 3.96335 45.245 9.21051C46.82 10.3744 49.1534 12.7258 49.6271 13.6264L49.993 14.3219H53.1715H56.3502L55.6702 12.8943C53.5837 8.5134 49.7278 4.64509 45.1615 2.35184C43.6532 1.5944 41.7511 0.920713 39.8171 0.459339C37.6482 -0.0581143 33.3113 -0.157242 31.0318 0.258595ZM55.8503 16.7353C52.8605 17.3946 50.6845 19.0801 49.7647 21.4492C49.3098 22.621 49.2092 24.8577 49.5521 26.1821C50.281 28.9978 52.4994 31.2393 55.2722 31.9616C55.7449 32.0846 56.714 32.1854 57.4262 32.1854C62.494 32.1854 66.0332 29.0538 66.0244 24.5773C66.0197 22.2075 65.1807 20.2119 63.537 18.6613C62.4508 17.6366 61.4164 17.0754 59.9975 16.7408C58.8726 16.4757 57.0387 16.4732 55.8503 16.7353ZM91.2111 24.1929V31.4533H95.7194C101.485 31.4533 102.183 31.2967 103.956 29.6054C105.293 28.3298 105.996 26.4943 105.995 24.2786C105.994 20.7443 104.414 18.3506 101.424 17.3537C100.592 17.0764 100.088 17.0435 95.86 16.9908L91.2111 16.9328V24.1929ZM21.6609 24.3518V31.5481H22.1367C22.3984 31.5486 23.1563 31.4965 23.8206 31.5481H25.0286V28.9306V26.1103H28.7623H32.4961V24.6281V23.2537H28.7623H25.0286V21.7329V20.1043H29.2016H33.3746V18.6234V17.2504H27.5177H21.6609V24.3518ZM36.2535 21.8865C36.2002 24.4364 36.2535 27.6255 36.2535 28.9735V31.4535H41.7572C44.8376 31.4857 47.3786 31.5087 47.4458 31.4535C47.513 31.3983 47.5032 30.7412 47.4458 30.0084V28.637H43.4955H39.5592V22.9242V17.2504H37.9356H36.2535V21.8865ZM66.8 17.3053C66.8322 17.3656 68.2033 20.6181 69.8469 24.4657L72.8352 31.4208H74.4928H76.1506L79.2562 24.3518L82.362 17.3053H80.6819C79.758 17.2824 78.9307 17.2719 78.8436 17.3053C78.7565 17.3388 77.7984 19.6114 76.7146 22.3606C74.7753 27.28 74.7401 27.3537 74.4896 27.0268C74.3496 26.8441 73.5975 25.0803 72.8179 23.1072C72.0384 21.1342 71.1705 19.0092 70.8895 18.3851L70.3785 17.3053H68.56C67.5598 17.3053 66.7678 17.245 66.8 17.3053ZM84.3293 24.3518V31.4533H86.0131H87.697V24.3518V17.2504H86.0131H84.3293V24.3518ZM108.05 24.3518V31.4533H113.98H120V30.3917C120.001 29.8078 119.952 29.182 120 29.0007V28.6712H115.675H111.26L111.302 27.2436L111.344 25.679H115.056C117.097 25.6241 118.916 25.7198 118.957 25.679C118.998 25.638 118.914 24.9035 118.957 24.2142V22.9608H115.263H111.414V21.6064C111.375 20.8614 111.38 20.1476 111.414 20.0873C111.447 20.027 113.308 20.0873 115.599 20.0873H119.763V18.6414V17.2504H113.906H108.05V24.3518ZM56.0541 19.358C54.3022 19.8622 52.9596 21.0166 52.4 22.5C51.9518 23.6881 52.0457 25.369 52.6265 26.556C53.1611 27.6489 54.1042 28.5894 55.1627 29.0856C55.9115 29.4366 56.1613 29.476 57.6074 29.471C58.929 29.4665 59.3678 29.4058 60.0529 29.1336C61.1578 28.6947 62.2491 27.6943 62.7614 26.6511C63.1248 25.9108 63.1708 25.6582 63.1661 24.425C63.1614 23.1982 63.1112 22.9314 62.7399 22.1646C62.2029 21.0562 61.26 20.1136 60.1984 19.625C59.5287 19.3167 59.1048 19.2334 58.0466 19.2023C57.2694 19.1796 56.4521 19.2433 56.0541 19.358ZM94.9378 20.3642C94.8986 20.4661 94.8842 22.2944 94.9057 24.4274L94.9448 28.3052L97.228 28.3036C99.4766 28.3018 99.5242 28.2952 100.373 27.8611C101.123 27.4773 101.292 27.3085 101.677 26.5549C102.084 25.7595 102.119 25.5699 102.117 24.2152C102.114 22.9274 102.066 22.6486 101.74 22.0091C101.317 21.1802 100.49 20.521 99.6195 20.3191C98.7004 20.1059 95.0233 20.1413 94.9378 20.3642ZM8.26286 24.6572C5.6529 26.0002 3.23958 27.7525 1.63817 29.4672C-0.345553 31.5913 -0.527408 33.4301 1.09128 34.9969C3.30298 37.1376 8.72775 38.1867 16.6093 37.998C21.4468 37.882 25.0205 37.3952 30.2997 36.1326C32.5772 35.5879 37.9708 33.9508 37.8583 33.8383C37.8299 33.8098 35.8375 34.1156 33.4308 34.5179C26.9909 35.5943 25.2746 35.7551 20.1234 35.7646C15.5936 35.773 13.9717 35.6512 11.2649 35.0997C8.75923 34.5893 6.73759 33.7685 5.5258 32.7696C4.85022 32.2127 4.38313 31.2515 4.38328 30.4186C4.38357 28.9524 5.9248 26.8499 8.31103 25.0606C10.0975 23.7212 10.0966 23.7136 8.26286 24.6572ZM47.0051 35.2807C45.7067 36.8439 42.0855 38.9158 39.5117 39.5682C35.5454 40.5736 32.0187 40.3519 28.1384 38.8533C26.6456 38.2768 26.0884 38.2304 24.4408 38.5456C23.8357 38.6614 22.3531 38.8619 21.1463 38.991C19.9394 39.1202 18.889 39.2442 18.8117 39.2666C18.5283 39.3486 20.1482 40.8711 21.4348 41.7318C22.9841 42.7683 26.0206 44.272 27.8563 44.9117C30.2918 45.7607 31.8285 46.0023 34.8388 46.01C37.0726 46.0159 37.8301 45.9601 39.1587 45.6927C43.2632 44.8662 46.736 43.1939 50.0232 40.4608C51.5107 39.2241 53.7489 36.5585 54.5436 35.0772L54.7596 34.6745L51.132 34.6772L47.5043 34.6798L47.0051 35.2807Z" fill="#1E1E1E"/>
</svg>
