<svg width="33" height="32" viewBox="0 0 33 32" fill="none" xmlns="http://www.w3.org/2000/svg">
<path d="M16.5001 2.66626C23.8641 2.66626 29.8334 8.63559 29.8334 15.9996C29.8334 23.3636 23.8641 29.3329 16.5001 29.3329C9.13608 29.3329 3.16675 23.3636 3.16675 15.9996C3.16675 8.63559 9.13608 2.66626 16.5001 2.66626ZM26.0921 20.6729C23.067 21.9935 19.8009 22.6723 16.5001 22.6663C13.0921 22.6663 9.84675 21.9543 6.90941 20.6729C7.78553 22.4705 9.14928 23.9855 10.8451 25.0453C12.5409 26.105 14.5004 26.6667 16.5001 26.6663C18.5 26.6669 20.4598 26.1054 22.1559 25.0456C23.8519 23.9859 25.2159 22.4707 26.0921 20.6729ZM26.4094 12.0423C23.3918 13.7664 19.9755 14.671 16.5001 14.6663C12.8961 14.6663 9.51341 13.7116 6.59075 12.0423C5.94005 13.6729 5.70189 15.4389 5.89741 17.1836C9.12335 19.0363 12.78 20.0074 16.5001 19.9996C20.3614 19.9996 23.9801 18.9743 27.1014 17.1836C27.2967 15.4393 27.0586 13.6738 26.4081 12.0436L26.4094 12.0423ZM16.5001 5.33293C14.8205 5.33174 13.1645 5.72766 11.6672 6.48839C10.1698 7.24913 8.87351 8.35311 7.88408 9.71026C10.5059 11.215 13.4771 12.0045 16.5001 11.9996C19.523 12.0045 22.4942 11.215 25.1161 9.71026C24.1266 8.35311 22.8304 7.24913 21.333 6.48839C19.8356 5.72766 18.1796 5.33174 16.5001 5.33293Z" fill="white"/>
</svg>
