<svg width="105" height="40" viewBox="0 0 105 40" fill="none" xmlns="http://www.w3.org/2000/svg">
<path fill-rule="evenodd" clip-rule="evenodd" d="M26.9781 0.224815C22.2989 1.07845 17.9687 3.55037 15.1154 6.99686C13.0815 9.45351 12.1547 11.0457 11.3776 13.4181C10.5971 15.8008 10.3684 17.2971 10.3677 20.025C10.3668 23.4116 10.5658 24.387 11.98 27.9295L12.7472 29.8511L15.8057 29.9391C17.4879 29.9875 18.8851 30.0063 18.9106 29.9808C18.9359 29.9554 18.6128 29.4807 18.1925 28.9259C15.0984 24.8425 14.4033 19.1431 16.4113 14.3198C16.995 12.9174 18.1183 11.1963 19.2507 9.96905C24.4876 4.29288 33.1615 3.44561 39.3345 8.00732C40.7038 9.01919 42.7324 11.0634 43.1442 11.8464L43.4623 12.451H46.2256H48.989L48.3979 11.2099C46.5839 7.40128 43.2318 4.03829 39.262 2.04461C37.9507 1.38612 36.297 0.800439 34.6157 0.399335C32.7301 -0.0505227 28.9598 -0.136701 26.9781 0.224815ZM48.5544 14.5491C45.9552 15.1223 44.0635 16.5876 43.2638 18.6472C42.8683 19.6659 42.7809 21.6105 43.079 22.7619C43.7127 25.2097 45.6413 27.1585 48.0519 27.7864C48.4628 27.8933 49.3054 27.9809 49.9245 27.9809C54.3303 27.9809 57.4071 25.2585 57.3995 21.3667C57.3954 19.3065 56.666 17.5716 55.237 16.2235C54.2927 15.3327 53.3934 14.8448 52.1599 14.5539C51.1819 14.3234 49.5876 14.3212 48.5544 14.5491ZM79.296 21.0326V27.3444H83.2154C88.2276 27.3444 88.8343 27.2084 90.3758 25.738C91.5384 24.629 92.1493 23.0333 92.1486 21.107C92.1476 18.0344 90.7738 15.9534 88.1745 15.0868C87.4512 14.8457 87.0132 14.817 83.3376 14.7712L79.296 14.7208V21.0326ZM18.8313 21.1707V27.4269H19.245C19.4724 27.4273 20.1313 27.382 20.7089 27.4269H21.759V25.1513V22.6994H25.005H28.251V21.4109V20.216H25.005H21.759V18.8939V17.478H25.3869H29.0148V16.1906V14.9969H23.923H18.8313V21.1707ZM31.5176 19.0274C31.4713 21.2443 31.5176 24.0167 31.5176 25.1886V27.3446H36.3024C38.9804 27.3726 41.1894 27.3926 41.2478 27.3446C41.3063 27.2966 41.2977 26.7254 41.2478 26.0883V24.8961H37.8136H34.3915V19.9296V14.9969H32.98H31.5176V19.0274ZM58.0738 15.0447C58.1018 15.0971 59.2937 17.9247 60.7226 21.2697L63.3206 27.3162H64.7617H66.2029L68.9028 21.1707L71.6028 15.0447H70.1423C69.339 15.0248 68.6198 15.0156 68.5441 15.0447C68.4683 15.0738 67.6355 17.0495 66.6932 19.4396C65.0072 23.7163 64.9767 23.7805 64.7589 23.4962C64.6372 23.3374 63.9833 21.804 63.3055 20.0887C62.6278 18.3734 61.8734 16.526 61.6291 15.9834L61.1848 15.0447H59.6038C58.7343 15.0447 58.0458 14.9922 58.0738 15.0447ZM73.3132 21.1707V27.3444H74.777H76.2409V21.1707V14.9969H74.777H73.3132V21.1707ZM93.9348 21.1707V27.3444H99.0902H104.324V26.4216C104.325 25.9139 104.282 25.3699 104.324 25.2123V24.9259H100.564H96.7261L96.7625 23.6847L96.7989 22.3245H100.026C101.8 22.2767 103.382 22.36 103.417 22.3245C103.453 22.2888 103.38 21.6503 103.417 21.051V19.9614H100.206H96.8593V18.7839C96.8259 18.1362 96.8303 17.5157 96.8593 17.4632C96.8884 17.4108 98.5067 17.4632 100.498 17.4632H104.118V16.2062V14.9969H99.0266H93.9348V21.1707ZM48.7316 16.8292C47.2086 17.2676 46.0414 18.2712 45.5549 19.5608C45.1652 20.5937 45.2468 22.055 45.7518 23.087C46.2166 24.0371 47.0365 24.8547 47.9567 25.2861C48.6077 25.5912 48.8248 25.6255 50.082 25.6211C51.2309 25.6172 51.6124 25.5645 52.208 25.3279C53.1686 24.9462 54.1173 24.0766 54.5627 23.1696C54.8787 22.526 54.9186 22.3064 54.9146 21.2343C54.9105 20.1677 54.8668 19.9358 54.544 19.2692C54.0772 18.3055 53.2575 17.4862 52.3346 17.0614C51.7523 16.7933 51.3838 16.7209 50.4639 16.6939C49.7882 16.6741 49.0776 16.7295 48.7316 16.8292ZM82.5359 17.704C82.5018 17.7926 82.4893 19.3821 82.508 21.2364L82.542 24.6076L84.5269 24.6062C86.4817 24.6047 86.5231 24.599 87.261 24.2215C87.9134 23.8879 88.0599 23.7411 88.3948 23.086C88.7482 22.3945 88.7791 22.2296 88.7768 21.0519C88.7747 19.9324 88.7333 19.69 88.4497 19.134C88.0821 18.4134 87.3629 17.8403 86.606 17.6647C85.807 17.4794 82.6102 17.5102 82.5359 17.704ZM7.18347 21.4362C4.91445 22.6038 2.81639 24.1271 1.42417 25.6178C-0.300412 27.4645 -0.458512 29.063 0.948725 30.4252C2.8715 32.2863 7.58762 33.1983 14.4396 33.0342C18.6452 32.9334 21.752 32.5102 26.3416 31.4125C28.3216 30.939 33.0106 29.5157 32.9128 29.4179C32.8881 29.3931 31.156 29.659 29.0637 30.0087C23.465 30.9446 21.9729 31.0844 17.4947 31.0926C13.5566 31.0999 12.1465 30.994 9.79338 30.5146C7.61499 30.0708 5.85744 29.3572 4.80396 28.4888C4.21662 28.0047 3.81055 27.169 3.81068 26.445C3.81093 25.1703 5.15083 23.3424 7.22535 21.7869C8.77846 20.6224 8.7777 20.6158 7.18347 21.4362ZM40.8647 30.6719C39.7359 32.0309 36.5878 33.8321 34.3502 34.3993C30.9021 35.2733 27.8361 35.0806 24.4626 33.7778C23.1649 33.2766 22.6804 33.2363 21.2481 33.5103C20.722 33.611 19.4331 33.7853 18.3839 33.8976C17.3347 34.0098 16.4215 34.1176 16.3542 34.1371C16.1079 34.2084 17.5162 35.532 18.6347 36.2802C19.9816 37.1814 22.6214 38.4887 24.2173 39.0448C26.3347 39.7829 27.6707 39.9929 30.2877 39.9996C32.2297 40.0047 32.8882 39.9562 34.0433 39.7238C37.6116 39.0052 40.6308 37.5514 43.4885 35.1753C44.7817 34.1002 46.7275 31.7828 47.4185 30.495L47.6062 30.1449L44.4525 30.1472L41.2987 30.1495L40.8647 30.6719Z" fill="white"/>
</svg>
