<svg width="36" height="37" viewBox="0 0 36 37" fill="none" xmlns="http://www.w3.org/2000/svg">
<path d="M9.05986 12.1766C5.36986 13.0121 3.52486 13.4291 3.08536 14.8406C2.64736 16.2506 3.90436 17.7221 6.41986 20.6636L7.07086 21.4241C7.78486 22.2596 8.14336 22.6781 8.30386 23.1941C8.46436 23.7116 8.41036 24.2696 8.30236 25.3841L8.20336 26.3996C7.82386 30.3251 7.63336 32.2871 8.78236 33.1586C9.93136 34.0301 11.6594 33.2351 15.1124 31.6451L16.0079 31.2341C16.9889 30.7811 17.4794 30.5561 17.9999 30.5561C18.5204 30.5561 19.0109 30.7811 19.9934 31.2341L20.8859 31.6451C24.3404 33.2351 26.0684 34.0301 27.2159 33.1601C28.3664 32.2871 28.1759 30.3251 27.7964 26.3996M29.5799 20.6636C32.0954 17.7236 33.3524 16.2521 32.9144 14.8406C32.4764 13.4291 30.6299 13.0106 26.9399 12.1766L25.9859 11.9606C24.9374 11.7236 24.4139 11.6051 23.9924 11.2856C23.5709 10.9661 23.3024 10.4816 22.7624 9.51255L22.2704 8.63055C20.3699 5.22255 19.4204 3.51855 17.9999 3.51855C16.5794 3.51855 15.6299 5.22255 13.7294 8.63055" stroke="#67C733" stroke-width="3" stroke-linecap="round"/>
</svg>
