<svg width="33" height="32" viewBox="0 0 33 32" fill="none" xmlns="http://www.w3.org/2000/svg">
<path d="M22.5 20.6729L22.5 11.3271C22.4962 11.1531 22.4581 10.9816 22.3878 10.8224C22.2538 10.5014 21.9986 10.2462 21.6776 10.1121C21.5184 10.0419 21.3469 10.0038 21.1729 10L11.8271 10C11.6528 10 11.4803 10.0343 11.3192 10.101C11.1582 10.1677 11.0119 10.2655 10.8887 10.3887C10.6398 10.6376 10.5 10.9751 10.5 11.3271C10.5 11.6791 10.6398 12.0166 10.8887 12.2655C11.1376 12.5144 11.4751 12.6542 11.8271 12.6542L17.986 12.6449L10.8925 19.7383C10.6447 19.9862 10.5054 20.3224 10.5054 20.6729C10.5054 21.0234 10.6447 21.3596 10.8925 21.6075C11.1404 21.8553 11.4766 21.9946 11.8271 21.9946C12.1776 21.9946 12.5138 21.8553 12.7617 21.6075L19.8551 14.514L19.8458 20.6729C19.8451 20.8474 19.8789 21.0203 19.9453 21.1816C20.0118 21.3429 20.1095 21.4895 20.2329 21.6129C20.3563 21.7363 20.5028 21.834 20.6642 21.9004C20.8255 21.9669 20.9984 22.0007 21.1729 22C21.3474 22.0007 21.5203 21.9669 21.6816 21.9004C21.8429 21.834 21.9895 21.7363 22.1129 21.6129C22.2363 21.4895 22.334 21.3429 22.4004 21.1816C22.4669 21.0203 22.5007 20.8474 22.5 20.6729Z" fill="white"/>
</svg>
