<svg width="122" height="48" viewBox="0 0 122 48" fill="none" xmlns="http://www.w3.org/2000/svg">
<path fill-rule="evenodd" clip-rule="evenodd" d="M31.549 0.415737C26.077 1.41401 21.0132 4.30475 17.6765 8.33519C15.2979 11.2081 14.2141 13.07 13.3053 15.8444C12.3926 18.6308 12.1251 20.3806 12.1244 23.5708C12.1233 27.5311 12.356 28.6718 14.0098 32.8145L14.907 35.0617L18.4837 35.1646C20.4509 35.2211 22.0849 35.2432 22.1146 35.2134C22.1443 35.1836 21.7664 34.6285 21.2749 33.9798C17.6565 29.2044 16.8437 22.5394 19.1919 16.8989C19.8746 15.2589 21.1881 13.2461 22.5124 11.811C28.6366 5.17306 38.7802 4.18224 45.9991 9.51686C47.6004 10.7002 49.9726 13.0907 50.4542 14.0064L50.8262 14.7135H54.0577H57.2894L56.598 13.2621C54.4768 8.80812 50.5566 4.87534 45.9142 2.54387C44.3808 1.7738 42.4469 1.08889 40.4808 0.619827C38.2757 0.0937491 33.8665 -0.00703031 31.549 0.415737ZM56.7811 17.167C53.7415 17.8373 51.5293 19.5509 50.5941 21.9595C50.1316 23.1508 50.0294 25.4248 50.378 26.7713C51.119 29.6339 53.3744 31.9128 56.1934 32.6472C56.674 32.7722 57.6593 32.8746 58.3833 32.8746C63.5356 32.8746 67.1337 29.6909 67.1248 25.1398C67.12 22.7304 66.2671 20.7016 64.5959 19.1251C63.4917 18.0834 62.44 17.5128 60.9975 17.1727C59.8538 16.9031 57.9893 16.9006 56.7811 17.167ZM92.7313 24.749V32.1303H97.3147C103.176 32.1303 103.886 31.9712 105.688 30.2517C107.048 28.9548 107.762 27.0887 107.762 24.8361C107.76 21.2429 106.154 18.8093 103.114 17.7958C102.268 17.5139 101.756 17.4804 97.4576 17.4268L92.7313 17.3678V24.749ZM22.0219 24.9105V32.2268H22.5057C22.7717 32.2272 23.5422 32.1742 24.2176 32.2268H25.4457V29.5656V26.6983H29.2417H33.0377V25.1914V23.794H29.2417H25.4457V22.248V20.5922H29.6883H33.9308V19.0866V17.6907H27.9764H22.0219V24.9105ZM36.8577 22.4041C36.8035 24.9966 36.8577 28.2388 36.8577 29.6092V32.1305H42.4532C45.5849 32.1633 48.1682 32.1867 48.2365 32.1305C48.3049 32.0744 48.2949 31.4064 48.2365 30.6613V29.2671H44.2205H40.2185V23.4591V17.6907H38.5679H36.8577V22.4041ZM67.9133 17.7465C67.9461 17.8079 69.34 21.1145 71.011 25.0263L74.0491 32.0973H75.7344H77.4198L80.5772 24.9105L83.7347 17.7465H82.0266C81.0873 17.7233 80.2462 17.7126 80.1577 17.7465C80.0691 17.7806 79.0951 20.0911 77.9932 22.8861C76.0215 27.8875 75.9858 27.9625 75.7311 27.6301C75.5888 27.4443 74.8241 25.6511 74.0315 23.6452C73.239 21.6393 72.3567 19.4788 72.071 18.8444L71.5515 17.7465H69.7027C68.6858 17.7465 67.8806 17.6852 67.9133 17.7465ZM85.7348 24.9105V32.1303H87.4467H89.1586V24.9105V17.6907H87.4467H85.7348V24.9105ZM109.85 24.9105V32.1303H115.879H122V31.0511C122.001 30.4574 121.951 29.8212 122 29.6369V29.3019H117.603H113.115L113.157 27.8505L113.2 26.2598H116.973C119.049 26.204 120.898 26.3013 120.94 26.2598C120.981 26.2181 120.896 25.4714 120.94 24.7706V23.4963H117.184H113.27V22.1194C113.231 21.3619 113.236 20.6362 113.27 20.5749C113.304 20.5136 115.197 20.5749 117.526 20.5749H121.759V19.1049V17.6907H115.805H109.85V24.9105ZM56.9884 19.8334C55.2072 20.3461 53.8423 21.5197 53.2734 23.0279C52.8177 24.2357 52.9131 25.9447 53.5036 27.1515C54.0471 28.2626 55.006 29.2187 56.0821 29.7232C56.8434 30.08 57.0973 30.1201 58.5675 30.115C59.9111 30.1104 60.3572 30.0488 61.0538 29.772C62.1771 29.3258 63.2865 28.3087 63.8074 27.2481C64.1769 26.4954 64.2236 26.2387 64.2189 24.9849C64.2141 23.7376 64.1631 23.4664 63.7855 22.6868C63.2397 21.5599 62.281 20.6017 61.2017 20.105C60.5208 19.7914 60.0899 19.7067 59.0141 19.6752C58.2239 19.6521 57.393 19.7169 56.9884 19.8334ZM96.5201 20.8564C96.4802 20.96 96.4656 22.8189 96.4875 24.9873L96.5273 28.9298L98.8485 28.9281C101.135 28.9264 101.183 28.9197 102.046 28.4783C102.809 28.0881 102.98 27.9165 103.372 27.1503C103.785 26.3417 103.821 26.1489 103.819 24.7716C103.816 23.4624 103.768 23.1789 103.436 22.5287C103.006 21.686 102.165 21.0158 101.28 20.8106C100.345 20.5938 96.607 20.6298 96.5201 20.8564ZM8.40058 25.221C5.74711 26.5864 3.29357 28.3678 1.66547 30.1111C-0.351312 32.2707 -0.536198 34.1401 1.10947 35.7331C3.35803 37.9094 8.87321 38.976 16.8862 38.7841C21.8042 38.6662 25.4375 38.1713 30.8047 36.8876C33.1201 36.3339 38.6036 34.6694 38.4893 34.5551C38.4604 34.5261 36.4348 34.8371 33.988 35.246C27.4408 36.3404 25.6958 36.5039 20.4588 36.5136C15.8535 36.522 14.2046 36.3982 11.4527 35.8376C8.90522 35.3186 6.84988 34.4841 5.6179 33.4686C4.93105 32.9025 4.45618 31.9252 4.45633 31.0785C4.45663 29.5878 6.02355 27.4502 8.44955 25.6312C10.2658 24.2694 10.2649 24.2616 8.40058 25.221ZM47.7885 36.0216C46.4684 37.6108 42.7869 39.7172 40.1702 40.3805C36.1379 41.4026 32.5524 41.1772 28.6074 39.6536C27.0897 39.0676 26.5232 39.0204 24.8482 39.3409C24.2329 39.4586 22.7257 39.6624 21.4988 39.7937C20.2717 39.925 19.2038 40.0511 19.1252 40.0739C18.8371 40.1572 20.484 41.7051 21.792 42.5801C23.3671 43.6339 26.4542 45.1627 28.3205 45.8131C30.7967 46.6762 32.359 46.9218 35.4195 46.9297C37.6905 46.9357 38.4606 46.879 39.8113 46.6071C43.9842 45.7668 47.5149 44.0667 50.8569 41.288C52.3692 40.0307 54.6447 37.3207 55.4527 35.8146L55.6723 35.4053L51.9842 35.408L48.296 35.4106L47.7885 36.0216Z" fill="#252525"/>
</svg>
