<svg width="20" height="20" viewBox="0 0 20 20" fill="none" xmlns="http://www.w3.org/2000/svg">
<g clip-path="url(#clip0_1871_20812)">
<g clip-path="url(#clip1_1871_20812)">
<mask id="mask0_1871_20812" style="mask-type:luminance" maskUnits="userSpaceOnUse" x="-4" y="0" width="27" height="21">
<path d="M-4 0H22.6713V20.0025H-4V0Z" fill="white"/>
</mask>
<g mask="url(#mask0_1871_20812)">
<path fill-rule="evenodd" clip-rule="evenodd" d="M-4 0H34.0047V1.53926H-4V0ZM-4 3.07851H34.0047V4.61776H-4V3.07851ZM-4 6.15311H34.0047V7.69627H-4V6.15311ZM-4 9.23162H34.0047V10.7709H-4V9.23162ZM-4 12.3101H34.0047V13.8494H-4V12.3101ZM-4 15.3847H34.0047V16.924H-4V15.3847ZM-4 18.4632H34.0047V20.0025H-4V18.4632Z" fill="#BD3D44"/>
<path fill-rule="evenodd" clip-rule="evenodd" d="M-4 1.53906H34.0047V3.07832H-4V1.53906ZM-4 4.61757H34.0047V6.15292H-4V4.61757ZM-4 7.69217H34.0047V9.23143H-4V7.69217ZM-4 10.7707H34.0047V12.3099H-4V10.7707ZM-4 13.8492H34.0047V15.3884H-4V13.8492ZM-4 16.9238H34.0047V18.4631H-4V16.9238Z" fill="white"/>
<path fill-rule="evenodd" clip-rule="evenodd" d="M-4 0H11.2011V10.7709H-4V0Z" fill="#192F5D"/>
<path fill-rule="evenodd" clip-rule="evenodd" d="M-2.7343 0.460938L-2.59366 0.886772H-2.14829L-2.50771 1.14852L-2.37098 1.57826L-2.7343 1.31261L-3.09372 1.57436L-2.95699 1.14852L-3.32031 0.886772H-2.86713L-2.7343 0.460938ZM-0.198828 0.460938L-0.0620925 0.886772H0.387182L0.0238554 1.14852L0.160591 1.57826L-0.198828 1.31261L-0.562155 1.57436L-0.425419 1.14852L-0.784839 0.886772H-0.339471L-0.198828 0.460938ZM2.33274 0.460938L2.47338 0.886772H2.91484L2.55542 1.14852L2.69216 1.57826L2.32883 1.31261L1.96941 1.57436L2.10615 1.14852L1.74282 0.886772H2.1921L2.33274 0.460938ZM4.86821 0.460938L5.00495 0.886772H5.45422L5.0909 1.14852L5.23154 1.57826L4.86821 1.31261L4.50488 1.57436L4.64553 1.14852L4.2822 0.886772H4.72757L4.86821 0.460938ZM7.39978 0.460938L7.54042 0.886772H7.98579L7.62637 1.14852L7.7631 1.57826L7.39978 1.31261L7.04036 1.57436L7.17709 1.14852L6.81767 0.886772H7.26304L7.39978 0.460938ZM9.93525 0.460938L10.072 0.886772H10.5213L10.1579 1.14852L10.2986 1.57826L9.93525 1.31261L9.57192 1.57436L9.71257 1.14852L9.34924 0.886772H9.79852L9.93525 0.460938ZM-1.46461 1.5392L-1.32788 1.96503H-0.878601L-1.24193 2.22678L-1.1091 2.65262L-1.46071 2.39087L-1.82403 2.65262L-1.69511 2.22678L-2.04672 1.96503H-1.60135L-1.46461 1.5392ZM1.06695 1.5392L1.2076 1.96503H1.65297L1.28964 2.22678L1.43028 2.65262L1.06695 2.39087L0.703628 2.65262L0.844271 2.22678L0.480944 1.96503H0.930219L1.06695 1.5392ZM3.60243 1.5392L3.73916 1.96503H4.18844L3.82511 2.22678L3.96185 2.65262L3.60243 2.39087L3.2391 2.65262L3.37584 2.22678L3.01642 1.96503H3.46179L3.60243 1.5392ZM6.13399 1.5392L6.27464 1.96503H6.72001L6.35668 2.22678L6.49732 2.65262L6.13399 2.39087L5.77457 2.65262L5.91131 2.22678L5.54798 1.96503H6.00117L6.13399 1.5392ZM8.66947 1.5392L8.8062 1.96503H9.25548L8.89215 2.22678L9.02889 2.65262L8.66947 2.39087L8.30614 2.65262L8.44288 2.22678L8.08346 1.96503H8.52883L8.66947 1.5392ZM-2.7343 2.61355L-2.59366 3.0472H-2.14829L-2.50771 3.30895L-2.37098 3.73478L-2.7343 3.46913L-3.09372 3.73478L-2.95699 3.30504L-3.32031 3.04329H-2.86713L-2.7343 2.61355ZM-0.198828 2.61355L-0.0620925 3.04329H0.387182L0.0238554 3.30504L0.160591 3.73088L-0.198828 3.46522L-0.562155 3.73088L-0.425419 3.30114L-0.784839 3.03938H-0.339471L-0.198828 2.61355ZM2.33274 2.61355L2.47338 3.04329H2.91484L2.55542 3.30504L2.69216 3.73088L2.32883 3.46522L1.96941 3.73088L2.10615 3.30114L1.74282 3.03938H2.1921L2.33274 2.61355ZM4.86821 2.61355L5.00495 3.04329H5.45422L5.0909 3.30504L5.23154 3.73088L4.86821 3.46522L4.50488 3.73088L4.64553 3.30114L4.2822 3.03938H4.72757L4.86821 2.61355ZM7.39978 2.61355L7.54042 3.04329H7.98579L7.62637 3.30504L7.7631 3.73088L7.39978 3.46522L7.04036 3.73088L7.17709 3.30114L6.81767 3.03938H7.26304L7.39978 2.61355ZM9.93525 2.61355L10.072 3.04329H10.5213L10.1579 3.30504L10.2986 3.73088L9.93525 3.46522L9.57192 3.73088L9.71257 3.30114L9.34924 3.03938H9.79852L9.93525 2.61355ZM-1.46461 3.69181L-1.32788 4.11764H-0.878601L-1.24193 4.3794L-1.10519 4.80914L-1.46461 4.54348L-1.82794 4.80523L-1.6912 4.3794L-2.05062 4.11764H-1.60525L-1.46461 3.69181ZM1.06695 3.69181L1.2076 4.11764H1.65297L1.28964 4.3794L1.43028 4.80914L1.06695 4.54348L0.703628 4.80523L0.844271 4.3794L0.480944 4.11764H0.930219L1.06695 3.69181ZM3.60243 3.69181L3.73916 4.11764H4.18844L3.82511 4.3794L3.96185 4.80914L3.60243 4.54348L3.2391 4.80523L3.37584 4.3794L3.01642 4.11764H3.46179L3.60243 3.69181ZM6.13399 3.69181L6.27464 4.11764H6.72001L6.36059 4.3794L6.49732 4.80914L6.13399 4.54348L5.77457 4.80523L5.91131 4.3794L5.54798 4.11764H6.00117L6.13399 3.69181ZM8.66947 3.69181L8.8062 4.11764H9.25548L8.89215 4.3794L9.02889 4.80914L8.66947 4.54348L8.30614 4.80523L8.44288 4.3794L8.08346 4.11764H8.52883L8.66947 3.69181ZM-2.7343 4.77007L-2.59366 5.1959H-2.14829L-2.50771 5.45766L-2.37098 5.8874L-2.7343 5.62174L-3.09372 5.88349L-2.95699 5.45766L-3.32031 5.1959H-2.86713L-2.7343 4.77007ZM-0.198828 4.77007L-0.0620925 5.1959H0.387182L0.0238554 5.45766L0.160591 5.88349L-0.198828 5.62174L-0.562155 5.88349L-0.425419 5.45766L-0.784839 5.1959H-0.339471L-0.198828 4.77007ZM2.33274 4.77007L2.47338 5.1959H2.91484L2.55542 5.45766L2.69216 5.8874L2.32883 5.62174L1.96941 5.88349L2.10615 5.45766L1.74282 5.1959H2.1921L2.33274 4.77007ZM4.86821 4.77007L5.00495 5.1959H5.45422L5.0909 5.45766L5.23154 5.8874L4.86821 5.62174L4.50488 5.88349L4.64553 5.45766L4.2822 5.1959H4.72757L4.86821 4.77007ZM7.39978 4.77007L7.54042 5.1959H7.98579L7.62637 5.45766L7.7631 5.8874L7.39978 5.62174L7.04036 5.88349L7.17709 5.45766L6.81767 5.1959H7.26304L7.39978 4.77007ZM9.93525 4.77007L10.072 5.1959H10.5213L10.1579 5.45766L10.2986 5.8874L9.93525 5.62174L9.57192 5.88349L9.71257 5.45766L9.34924 5.1959H9.79852L9.93525 4.77007ZM-1.46461 5.84833L-1.32788 6.27416H-0.878601L-1.24193 6.53592L-1.10519 6.96175L-1.46461 6.69609L-1.82794 6.96175L-1.6912 6.53201L-2.05062 6.27026H-1.60525L-1.46461 5.84833ZM1.06695 5.84833L1.2076 6.27416H1.65297L1.28964 6.53592L1.43028 6.96175L1.06695 6.69609L0.703628 6.96175L0.844271 6.53201L0.480944 6.27026H0.930219L1.06695 5.84833ZM3.60243 5.84833L3.73916 6.27416H4.18844L3.82511 6.53592L3.96185 6.96175L3.60243 6.69609L3.2391 6.96175L3.37584 6.53201L3.01642 6.27026H3.46179L3.60243 5.84833ZM6.13399 5.84833L6.27464 6.27416H6.72001L6.36059 6.53592L6.49732 6.96175L6.13399 6.69609L5.77457 6.96175L5.91131 6.53201L5.54798 6.27026H6.00117L6.13399 5.84833ZM8.66947 5.84833L8.8062 6.27416H9.25548L8.89215 6.53592L9.02889 6.96175L8.66947 6.69609L8.30614 6.96175L8.44288 6.53201L8.08346 6.27026H8.52883L8.66947 5.84833ZM-2.7343 6.92268L-2.59366 7.35242H-2.14829L-2.50771 7.61418L-2.37098 8.0361L-2.7343 7.77435L-3.09372 8.0361L-2.95699 7.61027L-3.32031 7.34852H-2.86713L-2.7343 6.92268ZM-0.198828 6.92268L-0.0620925 7.35242H0.387182L0.0238554 7.61418L0.164498 8.0361L-0.198828 7.77435L-0.562155 8.0361L-0.421513 7.61027L-0.784839 7.34852H-0.339471L-0.198828 6.92268ZM2.33274 6.92268L2.47338 7.35242H2.91484L2.55542 7.61418L2.69216 8.0361L2.32883 7.77435L1.96941 8.0361L2.10615 7.61027L1.74282 7.34852H2.1921L2.33274 6.92268ZM4.86821 6.92268L5.00495 7.35242H5.45422L5.0909 7.61418L5.23154 8.0361L4.86821 7.77435L4.50488 8.0361L4.64553 7.61027L4.2822 7.34852H4.72757L4.86821 6.92268ZM7.39978 6.92268L7.54042 7.35242H7.98579L7.62637 7.61418L7.7631 8.0361L7.39978 7.77435L7.04036 8.0361L7.17709 7.61027L6.81767 7.34852H7.26304L7.39978 6.92268ZM9.93525 6.92268L10.072 7.35242H10.5213L10.1579 7.61418L10.2986 8.0361L9.93525 7.77435L9.57192 8.0361L9.71257 7.61027L9.34924 7.34852H9.79852L9.93525 6.92268ZM-1.46461 8.00094L-1.32788 8.42678H-0.878601L-1.24193 8.68853L-1.10519 9.11827L-1.46461 8.85261L-1.82794 9.11436L-1.6912 8.68853L-2.05062 8.42678H-1.60525L-1.46461 8.00094ZM1.06695 8.00094L1.2076 8.42678H1.65297L1.28964 8.68853L1.43028 9.11827L1.06695 8.85261L0.703628 9.11436L0.844271 8.68853L0.480944 8.42678H0.930219L1.06695 8.00094ZM3.60243 8.00094L3.73916 8.42678H4.18844L3.82511 8.68853L3.96185 9.11827L3.60243 8.85261L3.2391 9.11436L3.37584 8.68853L3.01642 8.42678H3.46179L3.60243 8.00094ZM6.13399 8.00094L6.27464 8.42678H6.72001L6.36059 8.68853L6.49732 9.11827L6.13399 8.85261L5.77457 9.11436L5.91131 8.68853L5.54798 8.42678H6.00117L6.13399 8.00094ZM8.66947 8.00094L8.8062 8.42678H9.25548L8.89215 8.68853L9.02889 9.11827L8.66947 8.85261L8.30614 9.11436L8.44288 8.68853L8.08346 8.42678H8.52883L8.66947 8.00094ZM-2.7343 9.0792L-2.59366 9.50504H-2.14829L-2.50771 9.76679L-2.37098 10.1926L-2.7343 9.93087L-3.09372 10.1926L-2.95699 9.76288L-3.32031 9.50113H-2.86713L-2.7343 9.0792ZM-0.198828 9.0792L-0.0620925 9.50504H0.387182L0.0238554 9.76679L0.164498 10.1926L-0.198828 9.93087L-0.562155 10.1926L-0.421513 9.76288L-0.784839 9.50113H-0.339471L-0.198828 9.0792ZM2.33274 9.0792L2.47338 9.50504H2.91484L2.56324 9.76679L2.69997 10.1926L2.33664 9.93087L1.97722 10.1926L2.11396 9.76288L1.75063 9.50113H2.19991L2.33274 9.0792ZM4.86821 9.0792L5.00495 9.50504H5.45422L5.0909 9.76679L5.23154 10.1926L4.86821 9.93087L4.50488 10.1926L4.64553 9.76288L4.2822 9.50113H4.72757L4.86821 9.0792ZM7.39978 9.0792L7.54042 9.50504H7.98579L7.62637 9.76679L7.7631 10.1926L7.39978 9.93087L7.04036 10.1926L7.17709 9.76288L6.81767 9.50113H7.26304L7.39978 9.0792ZM9.93525 9.0792L10.072 9.50504H10.5213L10.1579 9.76679L10.2986 10.1926L9.93525 9.93087L9.57192 10.1926L9.71257 9.76288L9.34924 9.50113H9.79852L9.93525 9.0792Z" fill="white"/>
</g>
</g>
</g>
<defs>
<clipPath id="clip0_1871_20812">
<rect width="20" height="20" rx="10" fill="white"/>
</clipPath>
<clipPath id="clip1_1871_20812">
<rect width="26.67" height="20.0025" fill="white" transform="translate(-4)"/>
</clipPath>
</defs>
</svg>
