<svg width="24" height="25" viewBox="0 0 24 25" fill="none" xmlns="http://www.w3.org/2000/svg">
<path d="M18.5 17.3396L18.5 7.21498C18.4959 7.02651 18.4546 6.84072 18.3785 6.66825C18.2333 6.32049 17.9568 6.04401 17.609 5.89878C17.4366 5.82268 17.2508 5.7814 17.0623 5.77728L6.93769 5.77728C6.74889 5.77728 6.56194 5.81447 6.38751 5.88672C6.21308 5.95897 6.05459 6.06487 5.92109 6.19837C5.65147 6.46799 5.5 6.83368 5.5 7.21498C5.5 7.59628 5.65147 7.96196 5.92109 8.23158C6.19071 8.5012 6.55639 8.65267 6.93769 8.65267L13.6098 8.64254L5.92523 16.3271C5.65671 16.5956 5.50586 16.9598 5.50586 17.3396C5.50586 17.7193 5.65671 18.0835 5.92523 18.352C6.19375 18.6206 6.55795 18.7714 6.93769 18.7714C7.31744 18.7714 7.68163 18.6206 7.95015 18.352L15.6347 10.6675L15.6246 17.3396C15.6238 17.5286 15.6605 17.7159 15.7325 17.8907C15.8044 18.0655 15.9103 18.2243 16.044 18.3579C16.1776 18.4916 16.3364 18.5974 16.5112 18.6694C16.686 18.7414 16.8733 18.778 17.0623 18.7773C17.2513 18.778 17.4386 18.7414 17.6134 18.6694C17.7882 18.5974 17.947 18.4916 18.0806 18.3579C18.2143 18.2243 18.3202 18.0655 18.3921 17.8907C18.4641 17.7159 18.5008 17.5286 18.5 17.3396Z" fill="#215F9C"/>
</svg>
